# xmcd CD database file
# Copyright (C) 1993-1998 Ti Kan
#
# Track frame offsets:
#	150
#	23937
#	43512
#	61452
#	82742
#	101100
#	122015
#	144720
#	162735
#	184700
#
# Disc length: 2712 seconds
#
# Revision: 1
# Processed by: cddbd v1.4b41PL1 Copyright (c) Steve Scherf et al.
# Submitted via: CDValet v3.31 - Copyright (c) 1997 Greg Leichner
#
DISCID=870a960a
DTITLE=Peggy Scott Adams - Help Yourself
DYEAR=1900
DGENRE=
TTITLE0=Bill
TTITLE1=Help Yourself
TTITLE2=I'll Take Care Of You
TTITLE3=You, Her and His
TTITLE4=Cleaning House
TTITLE5=I'm Getting What I Want
TTITLE6=Slow Drag
TTITLE7=I don't Wanna Steal It
TTITLE8=Burning
TTITLE9=Part Time Lover, Full Time Fool
EXTD=
EXTT0=
EXTT1=
EXTT2=
EXTT3=
EXTT4=
EXTT5=
EXTT6=
EXTT7=
EXTT8=
EXTT9=
PLAYORDER=
